# xmcd
#
# Track frame offsets: 
#        150
#        13734
#        24716
#        42203
#        59480
#        77999
#        93641
#        113886
#
# Disc length: 1841 seconds
#
# Revision: 0
# Processed by: cddbd v1.5.2PL0 Copyright (c) Steve Scherf et al.
# Submitted via: ExactAudioCopy v0.99pb4
#
DISCID=67072f08
DTITLE=Dave Smith - Country Rebel
DYEAR=2007
DGENRE=Country Rock
TTITLE0=Lonesome Train
TTITLE1=Luckiest Ones
TTITLE2=Tear It Down
TTITLE3=Same Old Record
TTITLE4=Runaway
TTITLE5=Life Of Crime
TTITLE6=Blood Runs Cold
TTITLE7=Wake Up
EXTD=
EXTT0=
EXTT1=
EXTT2=
EXTT3=
EXTT4=
EXTT5=
EXTT6=
EXTT7=
PLAYORDER=
